<svg width="27" height="26" viewBox="0 0 27 26" fill="none" xmlns="http://www.w3.org/2000/svg">
<g clip-path="url(#clip0_765_1149)">
<path fill-rule="evenodd" clip-rule="evenodd" d="M26.9915 26H0L1.93898 10.7525H7.24915C7.38136 10.7525 7.51356 10.7966 7.62373 10.9068C7.7339 11.0169 7.77797 11.1271 7.77797 11.2814C7.77797 11.4136 7.7339 11.5458 7.62373 11.6339C7.51356 11.722 7.40339 11.7881 7.24915 11.7881H2.79831L1.12373 25.0525H25.8898L24.4576 11.7881H20.0068C19.8746 11.7881 19.7424 11.7441 19.6542 11.6339C19.5661 11.5237 19.5 11.4136 19.5 11.2814C19.5 11.1492 19.5441 11.0169 19.6542 10.9068C19.7644 10.7966 19.8746 10.7525 20.0068 10.7525H25.3831L26.9915 26ZM4.29661 21.0644C4.27458 21.1746 4.27458 21.2627 4.27458 21.3068V21.5932C4.27458 21.7034 4.23051 21.8136 4.14237 21.9017C4.05424 22.0119 3.94407 22.078 3.8339 22.078H3.74576C3.61356 22.078 3.48136 22.0339 3.39322 21.9458C3.30508 21.8576 3.23898 21.7475 3.23898 21.6373V21.1966C3.23898 21.0203 3.28305 20.8 3.34915 20.5136C3.48136 20.1831 3.70169 20.0729 3.98814 20.161C4.27458 20.2712 4.38475 20.4695 4.34068 20.8C4.34068 20.8661 4.31864 20.9542 4.29661 21.0644ZM4.62712 23.2237C4.56102 23.0915 4.56102 22.9373 4.62712 22.7831C4.67119 22.6729 4.73729 22.5847 4.84746 22.5186C4.95763 22.4525 5.0678 22.4305 5.2 22.4305C5.24407 22.4746 5.31017 22.5186 5.37627 22.5186C5.44237 22.5186 5.57458 22.5186 5.77288 22.4966H5.92712C6.05932 22.4525 6.19153 22.4746 6.30169 22.5627C6.41186 22.6508 6.47797 22.761 6.52203 22.8932C6.5661 23.0254 6.54407 23.1576 6.45593 23.2678C6.3678 23.378 6.27966 23.4441 6.14746 23.4661C6.01525 23.4881 5.86102 23.5102 5.68475 23.5102H5.28814C5.1339 23.5102 5.02373 23.4881 4.93559 23.4661C4.78136 23.4441 4.69322 23.3559 4.62712 23.2237ZM4.67119 19.3898C4.58305 19.2576 4.56102 19.1034 4.58305 18.9712C4.62712 18.839 4.69322 18.7508 4.82542 18.6847C4.97966 18.5966 5.2661 18.5085 5.64068 18.4424H6.08136C6.21356 18.4864 6.30169 18.5525 6.38983 18.6627C6.47797 18.7729 6.5 18.8831 6.47797 19.0153C6.45593 19.1475 6.38983 19.2576 6.27966 19.3237C6.16949 19.4119 6.05932 19.4339 5.90508 19.4119H5.68475C5.53051 19.4119 5.37627 19.4559 5.24407 19.522C5.2 19.5661 5.11186 19.5661 5.0017 19.5661C4.78136 19.5881 4.67119 19.522 4.67119 19.3898ZM8.9678 21.6593C9.07797 21.7034 9.1661 21.8136 9.25424 21.9458C9.2983 22.0559 9.32034 22.1661 9.27627 22.2983C9.2322 22.4305 9.14407 22.5186 9.0339 22.5847C8.92373 22.6508 8.74746 22.739 8.52712 22.8271L8.13051 22.9814C8.08644 23.0254 8.02034 23.0254 7.95424 23.0254C7.88814 23.0254 7.8 22.9814 7.71186 22.9153C7.62373 22.8492 7.55763 22.761 7.51356 22.6729C7.44746 22.5627 7.44746 22.4525 7.51356 22.3203C7.57966 22.1881 7.68983 22.1 7.8 22.0339C7.88814 21.9898 8.02034 21.9458 8.17458 21.8576C8.39491 21.7475 8.54915 21.6814 8.65932 21.6373C8.74746 21.6153 8.85763 21.6153 8.9678 21.6593ZM11.6559 16.8119C10.9068 15.7542 10.2458 14.6085 9.67288 13.3746C8.92373 11.7661 8.37288 10.0915 7.97627 8.35085C7.75593 7.05085 7.68983 5.90508 7.82203 4.91356C8.04237 3.30508 8.65932 2.09322 9.65085 1.25593C10.6424 0.418644 11.9644 0 13.661 0C15.3356 0 16.6797 0.418644 17.6712 1.2339C18.6627 2.07119 19.2576 3.28305 19.4559 4.91356C19.5881 5.99322 19.522 7.13898 19.3017 8.35085C18.7508 10.8627 17.8475 13.1983 16.6136 15.3576C15.8424 16.6576 15.0271 17.7814 14.1458 18.6847C14.2119 18.7949 14.2339 18.9051 14.1678 19.0373C14.1237 19.1695 14.0356 19.2576 13.9475 19.3017C13.8593 19.3458 13.7492 19.4119 13.5949 19.478L13.3746 19.5881C13.3305 19.6102 13.2864 19.6322 13.2424 19.6763C13.1983 19.7203 13.1542 19.7424 13.1102 19.7644C13 19.8305 12.9119 19.8746 12.8237 19.8746C12.6915 19.8746 12.5593 19.7864 12.4271 19.6322C12.339 19.522 12.2949 19.4119 12.3169 19.2797C12.339 19.1475 12.4051 19.0373 12.5373 18.9492C12.5814 18.9051 12.6915 18.839 12.8237 18.7729L12.8678 18.7508C12.8898 18.7288 12.9339 18.7068 12.978 18.7068C13.0441 18.6847 13.0881 18.6627 13.0881 18.6627C12.6695 18.178 12.1847 17.5831 11.6559 16.8119ZM8.9678 8.13051C9.45254 10.4 10.2678 12.5373 11.3915 14.5203C12.0966 15.7983 12.8458 16.9 13.639 17.7814C14.4763 16.8559 15.2254 15.7983 15.9085 14.5644C17.0322 12.5814 17.8475 10.422 18.3102 8.13051C18.5305 7.07288 18.5966 6.03729 18.4864 5.04576C18.2881 3.67966 17.8034 2.6661 16.9881 2.00508C16.1949 1.34407 15.0492 0.991525 13.5949 0.991525C12.1407 0.991525 11.0169 1.32203 10.2017 2.00508C9.40847 2.6661 8.9017 3.67966 8.72542 5.04576C8.65932 6.03729 8.72542 7.07288 8.9678 8.13051ZM11.4136 20.1169C11.5458 20.139 11.6559 20.2051 11.7661 20.3373C11.8763 20.4695 11.8983 20.5797 11.8763 20.7119C11.8542 20.8441 11.7661 20.9542 11.6559 21.0203L11.4797 21.1525C11.1932 21.3729 10.9729 21.5051 10.8186 21.5932C10.7525 21.6373 10.6424 21.6373 10.5322 21.6373C10.3559 21.6373 10.2237 21.5492 10.1356 21.3949C10.0695 21.2847 10.0475 21.1746 10.0475 21.0424C10.0695 20.9102 10.1356 20.8 10.2458 20.7339C10.3559 20.6458 10.5322 20.5356 10.7966 20.3593C10.9288 20.2712 11.0169 20.2051 11.061 20.1831C11.1492 20.1169 11.2814 20.1169 11.4136 20.1169ZM11.8322 8.79153C11.2814 8.48305 10.8407 8.04237 10.5322 7.49153C10.2237 6.94068 10.0475 6.32373 10.0475 5.68475C10.0475 5.04576 10.2017 4.42881 10.5322 3.87797C10.8407 3.32712 11.2814 2.88644 11.8322 2.57797C12.3831 2.24746 13 2.09322 13.639 2.09322C14.3 2.09322 14.8949 2.24746 15.4458 2.57797C15.9966 2.90847 16.4373 3.34915 16.7458 3.87797C17.0542 4.42881 17.2305 5.02373 17.2305 5.68475C17.2305 6.34576 17.0763 6.94068 16.7458 7.49153C16.4373 8.04237 15.9966 8.48305 15.4458 8.79153C14.8949 9.1 14.278 9.27627 13.639 9.27627C12.978 9.25424 12.3831 9.1 11.8322 8.79153ZM11.8102 3.81186C11.2814 4.31864 11.039 4.93559 11.039 5.66271C11.039 6.14746 11.1492 6.58814 11.3915 6.98475C11.6339 7.38136 11.9424 7.71186 12.361 7.95424C12.7797 8.19661 13.1983 8.30678 13.661 8.30678C14.1237 8.30678 14.5424 8.19661 14.961 7.95424C15.3576 7.71186 15.6881 7.40339 15.9305 6.98475C16.1729 6.5661 16.2831 6.14746 16.2831 5.66271C16.2831 4.93559 16.0186 4.31864 15.5119 3.81186C15.0051 3.30508 14.3881 3.04068 13.661 3.04068C12.9339 3.04068 12.3169 3.30508 11.8102 3.81186ZM15.6441 17.6932C15.9746 17.6271 16.2169 17.583 16.3712 17.539C16.5254 17.4949 16.6356 17.539 16.7458 17.6271C16.8339 17.7153 16.9 17.8254 16.9441 17.9576C16.9881 18.0898 16.9661 18.222 16.878 18.3322C16.7898 18.4424 16.6797 18.5085 16.5475 18.5085L15.6441 18.6847H15.5119C15.4017 18.6847 15.3136 18.6407 15.2254 18.5746C15.1373 18.4864 15.0932 18.3983 15.0492 18.2881C15.0051 18.178 15.0271 18.0458 15.1153 17.9356C15.2034 17.8034 15.3136 17.7373 15.4458 17.7153L15.6441 17.6932ZM18.1119 17.5831C18.2 17.4729 18.3102 17.4288 18.4203 17.4288L19.3898 17.3847C19.522 17.3847 19.6322 17.4288 19.7424 17.4949C19.8525 17.583 19.9186 17.6932 19.9186 17.8254C19.9186 17.9576 19.8746 18.0898 19.7864 18.2C19.6983 18.3102 19.5881 18.3542 19.4339 18.3542L18.4864 18.3983C18.3542 18.3983 18.222 18.3542 18.1119 18.2661C18.0017 18.178 17.9576 18.0678 17.9576 17.9576C17.9797 17.8254 18.0237 17.6932 18.1119 17.5831ZM22.3203 13.3305C22.4085 13.4627 22.4305 13.5949 22.4085 13.7712C22.3644 13.9034 22.2983 13.9915 22.1881 14.0797C22.078 14.1678 21.9678 14.1898 21.8136 14.1678C21.5932 14.1237 21.3288 14.1458 21.0203 14.2119H20.8881C20.8 14.2119 20.7119 14.1898 20.6017 14.1237C20.4915 14.0576 20.4475 13.9695 20.4254 13.8814C20.3814 13.7271 20.4034 13.5949 20.4695 13.4627C20.5356 13.3525 20.6237 13.2864 20.778 13.2644C21.1966 13.1322 21.5932 13.0881 21.9678 13.1322C22.1 13.1542 22.2322 13.1983 22.3203 13.3305ZM21.9678 16.9881C22.1 16.9 22.2102 16.878 22.3424 16.9C22.4746 16.922 22.5627 16.9881 22.6508 17.1203C22.739 17.2305 22.7831 17.3627 22.761 17.4729C22.739 17.6051 22.6729 17.6932 22.5407 17.7814L22.4966 17.8254C22.1661 18.0458 21.8136 18.178 21.461 18.222H21.3508C21.1305 18.222 20.9542 18.0898 20.8661 17.8254C20.822 17.7153 20.8661 17.6051 20.9542 17.4729C21.0424 17.3407 21.1525 17.2746 21.2627 17.2525C21.5051 17.2305 21.7475 17.1424 21.9678 16.9881ZM23.0034 15.3136V15.2695C23.0034 15.1153 22.9814 14.9831 22.9373 14.8949C22.8932 14.8068 22.8932 14.6966 22.9593 14.5644C23.0254 14.4322 23.1136 14.3441 23.2237 14.278C23.3339 14.2339 23.4661 14.2339 23.5763 14.3C23.7085 14.3661 23.7966 14.4542 23.8627 14.5864L23.8847 14.6305C23.9288 14.9169 23.9729 15.1153 23.9729 15.2695V15.3797L23.8627 15.8644C23.7746 16.0847 23.6203 16.2169 23.378 16.2169H23.2678C22.9814 16.0847 22.8712 15.8864 22.9153 15.578L23.0034 15.3136Z" fill="#61BBBC"/>
</g>
<defs>
<clipPath id="clip0_765_1149">
<rect width="27" height="26" fill="white"/>
</clipPath>
</defs>
</svg>
